<svg width="800" height="400" xmlns="http://www.w3.org/2000/svg">
  <defs>
    <linearGradient id="barGrad" x1="0%" y1="0%" x2="0%" y2="100%">
      <stop offset="0%" style="stop-color:#3FB950;stop-opacity:1" />
      <stop offset="100%" style="stop-color:#0D1117;stop-opacity:0.8" />
    </linearGradient>
    <linearGradient id="titleGrad2" x1="0%" y1="0%" x2="100%" y2="0%">
      <stop offset="0%" style="stop-color:#3FB950;stop-opacity:1" />
      <stop offset="100%" style="stop-color:#F85D7F;stop-opacity:1" />
    </linearGradient>
    <filter id="glow2">
      <feGaussianBlur stdDeviation="2" result="coloredBlur"/>
      <feMerge>
        <feMergeNode in="coloredBlur"/>
        <feMergeNode in="SourceGraphic"/>
      </feMerge>
    </filter>
  </defs>
  
  <!-- Background -->
  <rect width="800" height="400" fill="#0D1117" rx="15"/>
  
  <!-- Title Section -->
  <text x="400" y="45" font-family="'Segoe UI', Arial, sans-serif" font-size="28" font-weight="bold" fill="url(#titleGrad2)" text-anchor="middle">
    ⚡ 30-DAY COMMIT ACTIVITY
  </text>
  <text x="400" y="70" font-family="'Segoe UI', Arial, sans-serif" font-size="13" fill="#8B949E" text-anchor="middle">
    Total: 584 commits • Peak: 57 commits/day
  </text>
  
  <!-- Chart Area -->
  <rect x="60" y="100" width="680" height="240" fill="#161B22" rx="10" opacity="0.3"/>
  
  <!-- Chart -->
  <g transform="translate(80, 120)">

    <rect x="0.0" y="157.89473684210526" width="21.333333333333332" height="22.105263157894736" fill="#8B5CF6" rx="3" filter="url(#glow2)" opacity="0.85"/>
    <rect x="23.333333333333332" y="142.10526315789474" width="21.333333333333332" height="37.89473684210526" fill="#8B5CF6" rx="3" filter="url(#glow2)" opacity="0.85"/>
    <rect x="46.666666666666664" y="0.0" width="21.333333333333332" height="180.0" fill="#3FB950" rx="3" filter="url(#glow2)" opacity="0.85"/>
    <rect x="70.0" y="132.63157894736844" width="21.333333333333332" height="47.368421052631575" fill="#8B5CF6" rx="3" filter="url(#glow2)" opacity="0.85"/>
    <rect x="93.33333333333333" y="180.0" width="21.333333333333332" height="0.0" fill="#21262D" rx="3" filter="url(#glow2)" opacity="0.85"/>
    <rect x="116.66666666666666" y="173.68421052631578" width="21.333333333333332" height="6.315789473684211" fill="#8B5CF6" rx="3" filter="url(#glow2)" opacity="0.85"/>
    <rect x="140.0" y="180.0" width="21.333333333333332" height="0.0" fill="#21262D" rx="3" filter="url(#glow2)" opacity="0.85"/>
    <rect x="163.33333333333331" y="170.5263157894737" width="21.333333333333332" height="9.473684210526315" fill="#8B5CF6" rx="3" filter="url(#glow2)" opacity="0.85"/>
    <rect x="186.66666666666666" y="173.68421052631578" width="21.333333333333332" height="6.315789473684211" fill="#8B5CF6" rx="3" filter="url(#glow2)" opacity="0.85"/>
    <rect x="210.0" y="37.89473684210526" width="21.333333333333332" height="142.10526315789474" fill="#3FB950" rx="3" filter="url(#glow2)" opacity="0.85"/>
    <rect x="233.33333333333331" y="164.21052631578948" width="21.333333333333332" height="15.789473684210526" fill="#8B5CF6" rx="3" filter="url(#glow2)" opacity="0.85"/>
    <rect x="256.66666666666663" y="138.94736842105263" width="21.333333333333332" height="41.05263157894736" fill="#8B5CF6" rx="3" filter="url(#glow2)" opacity="0.85"/>
    <rect x="280.0" y="72.63157894736842" width="21.333333333333332" height="107.36842105263158" fill="#F85D7F" rx="3" filter="url(#glow2)" opacity="0.85"/>
    <rect x="303.3333333333333" y="78.94736842105263" width="21.333333333333332" height="101.05263157894737" fill="#F85D7F" rx="3" filter="url(#glow2)" opacity="0.85"/>
    <rect x="326.66666666666663" y="94.73684210526316" width="21.333333333333332" height="85.26315789473684" fill="#F85D7F" rx="3" filter="url(#glow2)" opacity="0.85"/>
    <rect x="350.0" y="151.57894736842104" width="21.333333333333332" height="28.421052631578945" fill="#8B5CF6" rx="3" filter="url(#glow2)" opacity="0.85"/>
    <rect x="373.3333333333333" y="154.73684210526315" width="21.333333333333332" height="25.263157894736842" fill="#8B5CF6" rx="3" filter="url(#glow2)" opacity="0.85"/>
    <rect x="396.66666666666663" y="129.4736842105263" width="21.333333333333332" height="50.526315789473685" fill="#8B5CF6" rx="3" filter="url(#glow2)" opacity="0.85"/>
    <rect x="420.0" y="135.78947368421052" width="21.333333333333332" height="44.21052631578947" fill="#8B5CF6" rx="3" filter="url(#glow2)" opacity="0.85"/>
    <rect x="443.3333333333333" y="88.42105263157895" width="21.333333333333332" height="91.57894736842105" fill="#F85D7F" rx="3" filter="url(#glow2)" opacity="0.85"/>
    <rect x="466.66666666666663" y="180.0" width="21.333333333333332" height="0.0" fill="#21262D" rx="3" filter="url(#glow2)" opacity="0.85"/>
    <rect x="490.0" y="110.52631578947368" width="21.333333333333332" height="69.47368421052632" fill="#8B5CF6" rx="3" filter="url(#glow2)" opacity="0.85"/>
    <rect x="513.3333333333333" y="142.10526315789474" width="21.333333333333332" height="37.89473684210526" fill="#8B5CF6" rx="3" filter="url(#glow2)" opacity="0.85"/>
    <rect x="536.6666666666666" y="116.84210526315789" width="21.333333333333332" height="63.1578947368421" fill="#8B5CF6" rx="3" filter="url(#glow2)" opacity="0.85"/>
    <rect x="560.0" y="85.26315789473685" width="21.333333333333332" height="94.73684210526315" fill="#F85D7F" rx="3" filter="url(#glow2)" opacity="0.85"/>
    <rect x="583.3333333333333" y="15.789473684210549" width="21.333333333333332" height="164.21052631578945" fill="#3FB950" rx="3" filter="url(#glow2)" opacity="0.85"/>
    <rect x="606.6666666666666" y="34.73684210526318" width="21.333333333333332" height="145.26315789473682" fill="#3FB950" rx="3" filter="url(#glow2)" opacity="0.85"/>
    <rect x="630.0" y="82.10526315789473" width="21.333333333333332" height="97.89473684210527" fill="#F85D7F" rx="3" filter="url(#glow2)" opacity="0.85"/>
    <rect x="653.3333333333333" y="113.6842105263158" width="21.333333333333332" height="66.3157894736842" fill="#8B5CF6" rx="3" filter="url(#glow2)" opacity="0.85"/>
    <rect x="676.6666666666666" y="116.84210526315789" width="21.333333333333332" height="63.1578947368421" fill="#8B5CF6" rx="3" filter="url(#glow2)" opacity="0.85"/>
    <line x1="0" y1="0.0" x2="640" y2="0.0" stroke="#30363D" stroke-width="1" opacity="0.3"/>
    <line x1="0" y1="45.0" x2="640" y2="45.0" stroke="#30363D" stroke-width="1" opacity="0.3"/>
    <line x1="0" y1="90.0" x2="640" y2="90.0" stroke="#30363D" stroke-width="1" opacity="0.3"/>
    <line x1="0" y1="135.0" x2="640" y2="135.0" stroke="#30363D" stroke-width="1" opacity="0.3"/>
    <line x1="0" y1="180.0" x2="640" y2="180.0" stroke="#30363D" stroke-width="1" opacity="0.3"/>
  </g>
  
  <!-- Y-axis labels -->
  <text x="60" y="120" font-family="'Segoe UI', Arial, sans-serif" font-size="11" fill="#6E7681">57</text>
  <text x="60" y="210" font-family="'Segoe UI', Arial, sans-serif" font-size="11" fill="#6E7681">28</text>
  <text x="60" y="305" font-family="'Segoe UI', Arial, sans-serif" font-size="11" fill="#6E7681">0</text>
  
  <!-- Footer -->
  <text x="400" y="380" font-family="'Segoe UI', Arial, sans-serif" font-size="11" fill="#6E7681" text-anchor="middle">
    🤖 Real-time tracking • Updated: February 16, 2026 at 12:27 UTC
  </text>
</svg>