<svg width="800" height="400" xmlns="http://www.w3.org/2000/svg">
  <defs>
    <linearGradient id="barGrad" x1="0%" y1="0%" x2="0%" y2="100%">
      <stop offset="0%" style="stop-color:#3FB950;stop-opacity:1" />
      <stop offset="100%" style="stop-color:#0D1117;stop-opacity:0.8" />
    </linearGradient>
    <linearGradient id="titleGrad2" x1="0%" y1="0%" x2="100%" y2="0%">
      <stop offset="0%" style="stop-color:#3FB950;stop-opacity:1" />
      <stop offset="100%" style="stop-color:#F85D7F;stop-opacity:1" />
    </linearGradient>
    <filter id="glow2">
      <feGaussianBlur stdDeviation="2" result="coloredBlur"/>
      <feMerge>
        <feMergeNode in="coloredBlur"/>
        <feMergeNode in="SourceGraphic"/>
      </feMerge>
    </filter>
  </defs>
  
  <!-- Background -->
  <rect width="800" height="400" fill="#0D1117" rx="15"/>
  
  <!-- Title Section -->
  <text x="400" y="45" font-family="'Segoe UI', Arial, sans-serif" font-size="28" font-weight="bold" fill="url(#titleGrad2)" text-anchor="middle">
    ⚡ 30-DAY COMMIT ACTIVITY
  </text>
  <text x="400" y="70" font-family="'Segoe UI', Arial, sans-serif" font-size="13" fill="#8B949E" text-anchor="middle">
    Total: 818 commits • Peak: 113 commits/day
  </text>
  
  <!-- Chart Area -->
  <rect x="60" y="100" width="680" height="240" fill="#161B22" rx="10" opacity="0.3"/>
  
  <!-- Chart -->
  <g transform="translate(80, 120)">

    <rect x="0.0" y="180.0" width="21.333333333333332" height="0.0" fill="#21262D" rx="3" filter="url(#glow2)" opacity="0.85"/>
    <rect x="23.333333333333332" y="0.0" width="21.333333333333332" height="180.0" fill="#3FB950" rx="3" filter="url(#glow2)" opacity="0.85"/>
    <rect x="46.666666666666664" y="119.46902654867256" width="21.333333333333332" height="60.53097345132744" fill="#8B5CF6" rx="3" filter="url(#glow2)" opacity="0.85"/>
    <rect x="70.0" y="154.5132743362832" width="21.333333333333332" height="25.486725663716815" fill="#8B5CF6" rx="3" filter="url(#glow2)" opacity="0.85"/>
    <rect x="93.33333333333333" y="108.31858407079646" width="21.333333333333332" height="71.68141592920354" fill="#8B5CF6" rx="3" filter="url(#glow2)" opacity="0.85"/>
    <rect x="116.66666666666666" y="172.0353982300885" width="21.333333333333332" height="7.964601769911504" fill="#8B5CF6" rx="3" filter="url(#glow2)" opacity="0.85"/>
    <rect x="140.0" y="152.92035398230087" width="21.333333333333332" height="27.07964601769912" fill="#8B5CF6" rx="3" filter="url(#glow2)" opacity="0.85"/>
    <rect x="163.33333333333331" y="90.79646017699115" width="21.333333333333332" height="89.20353982300885" fill="#F85D7F" rx="3" filter="url(#glow2)" opacity="0.85"/>
    <rect x="186.66666666666666" y="87.61061946902655" width="21.333333333333332" height="92.38938053097345" fill="#F85D7F" rx="3" filter="url(#glow2)" opacity="0.85"/>
    <rect x="210.0" y="106.72566371681415" width="21.333333333333332" height="73.27433628318585" fill="#F85D7F" rx="3" filter="url(#glow2)" opacity="0.85"/>
    <rect x="233.33333333333331" y="38.23008849557522" width="21.333333333333332" height="141.76991150442478" fill="#3FB950" rx="3" filter="url(#glow2)" opacity="0.85"/>
    <rect x="256.66666666666663" y="95.57522123893806" width="21.333333333333332" height="84.42477876106194" fill="#F85D7F" rx="3" filter="url(#glow2)" opacity="0.85"/>
    <rect x="280.0" y="168.8495575221239" width="21.333333333333332" height="11.150442477876107" fill="#8B5CF6" rx="3" filter="url(#glow2)" opacity="0.85"/>
    <rect x="303.3333333333333" y="160.8849557522124" width="21.333333333333332" height="19.115044247787612" fill="#8B5CF6" rx="3" filter="url(#glow2)" opacity="0.85"/>
    <rect x="326.66666666666663" y="89.20353982300885" width="21.333333333333332" height="90.79646017699115" fill="#F85D7F" rx="3" filter="url(#glow2)" opacity="0.85"/>
    <rect x="350.0" y="156.10619469026548" width="21.333333333333332" height="23.893805309734514" fill="#8B5CF6" rx="3" filter="url(#glow2)" opacity="0.85"/>
    <rect x="373.3333333333333" y="180.0" width="21.333333333333332" height="0.0" fill="#21262D" rx="3" filter="url(#glow2)" opacity="0.85"/>
    <rect x="396.66666666666663" y="176.81415929203538" width="21.333333333333332" height="3.185840707964602" fill="#8B5CF6" rx="3" filter="url(#glow2)" opacity="0.85"/>
    <rect x="420.0" y="180.0" width="21.333333333333332" height="0.0" fill="#21262D" rx="3" filter="url(#glow2)" opacity="0.85"/>
    <rect x="443.3333333333333" y="175.2212389380531" width="21.333333333333332" height="4.778761061946903" fill="#8B5CF6" rx="3" filter="url(#glow2)" opacity="0.85"/>
    <rect x="466.66666666666663" y="176.81415929203538" width="21.333333333333332" height="3.185840707964602" fill="#8B5CF6" rx="3" filter="url(#glow2)" opacity="0.85"/>
    <rect x="490.0" y="108.31858407079646" width="21.333333333333332" height="71.68141592920354" fill="#8B5CF6" rx="3" filter="url(#glow2)" opacity="0.85"/>
    <rect x="513.3333333333333" y="172.0353982300885" width="21.333333333333332" height="7.964601769911504" fill="#8B5CF6" rx="3" filter="url(#glow2)" opacity="0.85"/>
    <rect x="536.6666666666666" y="159.2920353982301" width="21.333333333333332" height="20.707964601769913" fill="#8B5CF6" rx="3" filter="url(#glow2)" opacity="0.85"/>
    <rect x="560.0" y="125.84070796460176" width="21.333333333333332" height="54.15929203539824" fill="#8B5CF6" rx="3" filter="url(#glow2)" opacity="0.85"/>
    <rect x="583.3333333333333" y="129.02654867256638" width="21.333333333333332" height="50.97345132743363" fill="#8B5CF6" rx="3" filter="url(#glow2)" opacity="0.85"/>
    <rect x="606.6666666666666" y="136.99115044247787" width="21.333333333333332" height="43.008849557522126" fill="#8B5CF6" rx="3" filter="url(#glow2)" opacity="0.85"/>
    <rect x="630.0" y="165.6637168141593" width="21.333333333333332" height="14.336283185840708" fill="#8B5CF6" rx="3" filter="url(#glow2)" opacity="0.85"/>
    <rect x="653.3333333333333" y="167.2566371681416" width="21.333333333333332" height="12.743362831858407" fill="#8B5CF6" rx="3" filter="url(#glow2)" opacity="0.85"/>
    <rect x="676.6666666666666" y="162.47787610619469" width="21.333333333333332" height="17.52212389380531" fill="#8B5CF6" rx="3" filter="url(#glow2)" opacity="0.85"/>
    <line x1="0" y1="0.0" x2="640" y2="0.0" stroke="#30363D" stroke-width="1" opacity="0.3"/>
    <line x1="0" y1="45.0" x2="640" y2="45.0" stroke="#30363D" stroke-width="1" opacity="0.3"/>
    <line x1="0" y1="90.0" x2="640" y2="90.0" stroke="#30363D" stroke-width="1" opacity="0.3"/>
    <line x1="0" y1="135.0" x2="640" y2="135.0" stroke="#30363D" stroke-width="1" opacity="0.3"/>
    <line x1="0" y1="180.0" x2="640" y2="180.0" stroke="#30363D" stroke-width="1" opacity="0.3"/>
  </g>
  
  <!-- Y-axis labels -->
  <text x="60" y="120" font-family="'Segoe UI', Arial, sans-serif" font-size="11" fill="#6E7681">113</text>
  <text x="60" y="210" font-family="'Segoe UI', Arial, sans-serif" font-size="11" fill="#6E7681">56</text>
  <text x="60" y="305" font-family="'Segoe UI', Arial, sans-serif" font-size="11" fill="#6E7681">0</text>
  
  <!-- Footer -->
  <text x="400" y="380" font-family="'Segoe UI', Arial, sans-serif" font-size="11" fill="#6E7681" text-anchor="middle">
    🤖 Real-time tracking • Updated: February 04, 2026 at 13:07 UTC
  </text>
</svg>