<svg width="800" height="400" xmlns="http://www.w3.org/2000/svg">
  <defs>
    <linearGradient id="barGrad" x1="0%" y1="0%" x2="0%" y2="100%">
      <stop offset="0%" style="stop-color:#3FB950;stop-opacity:1" />
      <stop offset="100%" style="stop-color:#0D1117;stop-opacity:0.8" />
    </linearGradient>
    <linearGradient id="titleGrad2" x1="0%" y1="0%" x2="100%" y2="0%">
      <stop offset="0%" style="stop-color:#3FB950;stop-opacity:1" />
      <stop offset="100%" style="stop-color:#F85D7F;stop-opacity:1" />
    </linearGradient>
    <filter id="glow2">
      <feGaussianBlur stdDeviation="2" result="coloredBlur"/>
      <feMerge>
        <feMergeNode in="coloredBlur"/>
        <feMergeNode in="SourceGraphic"/>
      </feMerge>
    </filter>
  </defs>
  
  <!-- Background -->
  <rect width="800" height="400" fill="#0D1117" rx="15"/>
  
  <!-- Title Section -->
  <text x="400" y="45" font-family="'Segoe UI', Arial, sans-serif" font-size="28" font-weight="bold" fill="url(#titleGrad2)" text-anchor="middle">
    ⚡ 30-DAY COMMIT ACTIVITY
  </text>
  <text x="400" y="70" font-family="'Segoe UI', Arial, sans-serif" font-size="13" fill="#8B949E" text-anchor="middle">
    Total: 0 commits • Peak: 0 commits/day
  </text>
  
  <!-- Chart Area -->
  <rect x="60" y="100" width="680" height="240" fill="#161B22" rx="10" opacity="0.3"/>
  
  <!-- Chart -->
  <g transform="translate(80, 120)">

    <rect x="0.0" y="180" width="21.333333333333332" height="0" fill="#21262D" rx="3" filter="url(#glow2)" opacity="0.85"/>
    <rect x="23.333333333333332" y="180" width="21.333333333333332" height="0" fill="#21262D" rx="3" filter="url(#glow2)" opacity="0.85"/>
    <rect x="46.666666666666664" y="180" width="21.333333333333332" height="0" fill="#21262D" rx="3" filter="url(#glow2)" opacity="0.85"/>
    <rect x="70.0" y="180" width="21.333333333333332" height="0" fill="#21262D" rx="3" filter="url(#glow2)" opacity="0.85"/>
    <rect x="93.33333333333333" y="180" width="21.333333333333332" height="0" fill="#21262D" rx="3" filter="url(#glow2)" opacity="0.85"/>
    <rect x="116.66666666666666" y="180" width="21.333333333333332" height="0" fill="#21262D" rx="3" filter="url(#glow2)" opacity="0.85"/>
    <rect x="140.0" y="180" width="21.333333333333332" height="0" fill="#21262D" rx="3" filter="url(#glow2)" opacity="0.85"/>
    <rect x="163.33333333333331" y="180" width="21.333333333333332" height="0" fill="#21262D" rx="3" filter="url(#glow2)" opacity="0.85"/>
    <rect x="186.66666666666666" y="180" width="21.333333333333332" height="0" fill="#21262D" rx="3" filter="url(#glow2)" opacity="0.85"/>
    <rect x="210.0" y="180" width="21.333333333333332" height="0" fill="#21262D" rx="3" filter="url(#glow2)" opacity="0.85"/>
    <rect x="233.33333333333331" y="180" width="21.333333333333332" height="0" fill="#21262D" rx="3" filter="url(#glow2)" opacity="0.85"/>
    <rect x="256.66666666666663" y="180" width="21.333333333333332" height="0" fill="#21262D" rx="3" filter="url(#glow2)" opacity="0.85"/>
    <rect x="280.0" y="180" width="21.333333333333332" height="0" fill="#21262D" rx="3" filter="url(#glow2)" opacity="0.85"/>
    <rect x="303.3333333333333" y="180" width="21.333333333333332" height="0" fill="#21262D" rx="3" filter="url(#glow2)" opacity="0.85"/>
    <rect x="326.66666666666663" y="180" width="21.333333333333332" height="0" fill="#21262D" rx="3" filter="url(#glow2)" opacity="0.85"/>
    <rect x="350.0" y="180" width="21.333333333333332" height="0" fill="#21262D" rx="3" filter="url(#glow2)" opacity="0.85"/>
    <rect x="373.3333333333333" y="180" width="21.333333333333332" height="0" fill="#21262D" rx="3" filter="url(#glow2)" opacity="0.85"/>
    <rect x="396.66666666666663" y="180" width="21.333333333333332" height="0" fill="#21262D" rx="3" filter="url(#glow2)" opacity="0.85"/>
    <rect x="420.0" y="180" width="21.333333333333332" height="0" fill="#21262D" rx="3" filter="url(#glow2)" opacity="0.85"/>
    <rect x="443.3333333333333" y="180" width="21.333333333333332" height="0" fill="#21262D" rx="3" filter="url(#glow2)" opacity="0.85"/>
    <rect x="466.66666666666663" y="180" width="21.333333333333332" height="0" fill="#21262D" rx="3" filter="url(#glow2)" opacity="0.85"/>
    <rect x="490.0" y="180" width="21.333333333333332" height="0" fill="#21262D" rx="3" filter="url(#glow2)" opacity="0.85"/>
    <rect x="513.3333333333333" y="180" width="21.333333333333332" height="0" fill="#21262D" rx="3" filter="url(#glow2)" opacity="0.85"/>
    <rect x="536.6666666666666" y="180" width="21.333333333333332" height="0" fill="#21262D" rx="3" filter="url(#glow2)" opacity="0.85"/>
    <rect x="560.0" y="180" width="21.333333333333332" height="0" fill="#21262D" rx="3" filter="url(#glow2)" opacity="0.85"/>
    <rect x="583.3333333333333" y="180" width="21.333333333333332" height="0" fill="#21262D" rx="3" filter="url(#glow2)" opacity="0.85"/>
    <rect x="606.6666666666666" y="180" width="21.333333333333332" height="0" fill="#21262D" rx="3" filter="url(#glow2)" opacity="0.85"/>
    <rect x="630.0" y="180" width="21.333333333333332" height="0" fill="#21262D" rx="3" filter="url(#glow2)" opacity="0.85"/>
    <rect x="653.3333333333333" y="180" width="21.333333333333332" height="0" fill="#21262D" rx="3" filter="url(#glow2)" opacity="0.85"/>
    <rect x="676.6666666666666" y="180" width="21.333333333333332" height="0" fill="#21262D" rx="3" filter="url(#glow2)" opacity="0.85"/>
    <line x1="0" y1="0.0" x2="640" y2="0.0" stroke="#30363D" stroke-width="1" opacity="0.3"/>
    <line x1="0" y1="45.0" x2="640" y2="45.0" stroke="#30363D" stroke-width="1" opacity="0.3"/>
    <line x1="0" y1="90.0" x2="640" y2="90.0" stroke="#30363D" stroke-width="1" opacity="0.3"/>
    <line x1="0" y1="135.0" x2="640" y2="135.0" stroke="#30363D" stroke-width="1" opacity="0.3"/>
    <line x1="0" y1="180.0" x2="640" y2="180.0" stroke="#30363D" stroke-width="1" opacity="0.3"/>
  </g>
  
  <!-- Y-axis labels -->
  <text x="60" y="120" font-family="'Segoe UI', Arial, sans-serif" font-size="11" fill="#6E7681">0</text>
  <text x="60" y="210" font-family="'Segoe UI', Arial, sans-serif" font-size="11" fill="#6E7681">0</text>
  <text x="60" y="305" font-family="'Segoe UI', Arial, sans-serif" font-size="11" fill="#6E7681">0</text>
  
  <!-- Footer -->
  <text x="400" y="380" font-family="'Segoe UI', Arial, sans-serif" font-size="11" fill="#6E7681" text-anchor="middle">
    🤖 Real-time tracking • Updated: April 27, 2026 at 12:50 UTC
  </text>
</svg>