<svg width="500" height="200" xmlns="http://www.w3.org/2000/svg">
  <!-- Background -->
  <rect width="500" height="200" fill="#0D1117" rx="10"/>
  
  <!-- Title -->
  <text x="250" y="30" font-family="Arial, sans-serif" font-size="16" font-weight="bold" fill="#3FB950" text-anchor="middle">
    ⚡ 30-Day Commit Activity
  </text>
  
  <!-- Chart -->
  <g transform="translate(50, 60)">

    <rect x="0.0" y="100.0" width="12.666666666666666" height="0.0" fill="#21262D" rx="2"/>

    <rect x="14.666666666666666" y="100.0" width="12.666666666666666" height="0.0" fill="#21262D" rx="2"/>

    <rect x="29.333333333333332" y="100.0" width="12.666666666666666" height="0.0" fill="#21262D" rx="2"/>

    <rect x="44.0" y="100.0" width="12.666666666666666" height="0.0" fill="#21262D" rx="2"/>

    <rect x="58.666666666666664" y="100.0" width="12.666666666666666" height="0.0" fill="#21262D" rx="2"/>

    <rect x="73.33333333333333" y="100.0" width="12.666666666666666" height="0.0" fill="#21262D" rx="2"/>

    <rect x="88.0" y="100.0" width="12.666666666666666" height="0.0" fill="#21262D" rx="2"/>

    <rect x="102.66666666666666" y="100.0" width="12.666666666666666" height="0.0" fill="#21262D" rx="2"/>

    <rect x="117.33333333333333" y="100.0" width="12.666666666666666" height="0.0" fill="#21262D" rx="2"/>

    <rect x="132.0" y="100.0" width="12.666666666666666" height="0.0" fill="#21262D" rx="2"/>

    <rect x="146.66666666666666" y="100.0" width="12.666666666666666" height="0.0" fill="#21262D" rx="2"/>

    <rect x="161.33333333333331" y="100.0" width="12.666666666666666" height="0.0" fill="#21262D" rx="2"/>

    <rect x="176.0" y="100.0" width="12.666666666666666" height="0.0" fill="#21262D" rx="2"/>

    <rect x="190.66666666666666" y="100.0" width="12.666666666666666" height="0.0" fill="#21262D" rx="2"/>

    <rect x="205.33333333333331" y="100.0" width="12.666666666666666" height="0.0" fill="#21262D" rx="2"/>

    <rect x="220.0" y="100.0" width="12.666666666666666" height="0.0" fill="#21262D" rx="2"/>

    <rect x="234.66666666666666" y="100.0" width="12.666666666666666" height="0.0" fill="#21262D" rx="2"/>

    <rect x="249.33333333333331" y="100.0" width="12.666666666666666" height="0.0" fill="#21262D" rx="2"/>

    <rect x="264.0" y="100.0" width="12.666666666666666" height="0.0" fill="#21262D" rx="2"/>

    <rect x="278.66666666666663" y="100.0" width="12.666666666666666" height="0.0" fill="#21262D" rx="2"/>

    <rect x="293.3333333333333" y="42.85714285714286" width="12.666666666666666" height="57.14285714285714" fill="#3FB950" rx="2"/>

    <rect x="308.0" y="71.42857142857143" width="12.666666666666666" height="28.57142857142857" fill="#3FB950" rx="2"/>

    <rect x="322.66666666666663" y="21.42857142857143" width="12.666666666666666" height="78.57142857142857" fill="#3FB950" rx="2"/>

    <rect x="337.3333333333333" y="64.28571428571428" width="12.666666666666666" height="35.714285714285715" fill="#3FB950" rx="2"/>

    <rect x="352.0" y="57.142857142857146" width="12.666666666666666" height="42.857142857142854" fill="#3FB950" rx="2"/>

    <rect x="366.66666666666663" y="85.71428571428572" width="12.666666666666666" height="14.285714285714285" fill="#3FB950" rx="2"/>

    <rect x="381.3333333333333" y="85.71428571428572" width="12.666666666666666" height="14.285714285714285" fill="#3FB950" rx="2"/>

    <rect x="396.0" y="57.142857142857146" width="12.666666666666666" height="42.857142857142854" fill="#3FB950" rx="2"/>

    <rect x="410.66666666666663" y="0.0" width="12.666666666666666" height="100.0" fill="#3FB950" rx="2"/>

    <rect x="425.3333333333333" y="78.57142857142857" width="12.666666666666666" height="21.428571428571427" fill="#3FB950" rx="2"/>

  </g>
  
  <!-- Stats -->
  <text x="250" y="180" font-family="Arial, sans-serif" font-size="11" fill="#8B949E" text-anchor="middle">
    Total: 61 commits | Peak: 14 commits/day
  </text>
</svg>