<svg width="800" height="400" xmlns="http://www.w3.org/2000/svg">
  <defs>
    <linearGradient id="barGrad" x1="0%" y1="0%" x2="0%" y2="100%">
      <stop offset="0%" style="stop-color:#3FB950;stop-opacity:1" />
      <stop offset="100%" style="stop-color:#0D1117;stop-opacity:0.8" />
    </linearGradient>
    <linearGradient id="titleGrad2" x1="0%" y1="0%" x2="100%" y2="0%">
      <stop offset="0%" style="stop-color:#3FB950;stop-opacity:1" />
      <stop offset="100%" style="stop-color:#F85D7F;stop-opacity:1" />
    </linearGradient>
    <filter id="glow2">
      <feGaussianBlur stdDeviation="2" result="coloredBlur"/>
      <feMerge>
        <feMergeNode in="coloredBlur"/>
        <feMergeNode in="SourceGraphic"/>
      </feMerge>
    </filter>
  </defs>
  
  <!-- Background -->
  <rect width="800" height="400" fill="#0D1117" rx="15"/>
  
  <!-- Title Section -->
  <text x="400" y="45" font-family="'Segoe UI', Arial, sans-serif" font-size="28" font-weight="bold" fill="url(#titleGrad2)" text-anchor="middle">
    ⚡ 30-DAY COMMIT ACTIVITY
  </text>
  <text x="400" y="70" font-family="'Segoe UI', Arial, sans-serif" font-size="13" fill="#8B949E" text-anchor="middle">
    Total: 668 commits • Peak: 89 commits/day
  </text>
  
  <!-- Chart Area -->
  <rect x="60" y="100" width="680" height="240" fill="#161B22" rx="10" opacity="0.3"/>
  
  <!-- Chart -->
  <g transform="translate(80, 120)">

    <rect x="0.0" y="169.8876404494382" width="21.333333333333332" height="10.112359550561797" fill="#8B5CF6" rx="3" filter="url(#glow2)" opacity="0.85"/>
    <rect x="23.333333333333332" y="145.61797752808988" width="21.333333333333332" height="34.38202247191011" fill="#8B5CF6" rx="3" filter="url(#glow2)" opacity="0.85"/>
    <rect x="46.666666666666664" y="66.74157303370787" width="21.333333333333332" height="113.25842696629213" fill="#F85D7F" rx="3" filter="url(#glow2)" opacity="0.85"/>
    <rect x="70.0" y="62.696629213483135" width="21.333333333333332" height="117.30337078651687" fill="#F85D7F" rx="3" filter="url(#glow2)" opacity="0.85"/>
    <rect x="93.33333333333333" y="86.96629213483145" width="21.333333333333332" height="93.03370786516855" fill="#F85D7F" rx="3" filter="url(#glow2)" opacity="0.85"/>
    <rect x="116.66666666666666" y="0.0" width="21.333333333333332" height="180.0" fill="#3FB950" rx="3" filter="url(#glow2)" opacity="0.85"/>
    <rect x="140.0" y="72.80898876404494" width="21.333333333333332" height="107.19101123595506" fill="#F85D7F" rx="3" filter="url(#glow2)" opacity="0.85"/>
    <rect x="163.33333333333331" y="165.8426966292135" width="21.333333333333332" height="14.157303370786517" fill="#8B5CF6" rx="3" filter="url(#glow2)" opacity="0.85"/>
    <rect x="186.66666666666666" y="155.7303370786517" width="21.333333333333332" height="24.269662921348313" fill="#8B5CF6" rx="3" filter="url(#glow2)" opacity="0.85"/>
    <rect x="210.0" y="64.71910112359551" width="21.333333333333332" height="115.28089887640449" fill="#F85D7F" rx="3" filter="url(#glow2)" opacity="0.85"/>
    <rect x="233.33333333333331" y="149.6629213483146" width="21.333333333333332" height="30.337078651685392" fill="#8B5CF6" rx="3" filter="url(#glow2)" opacity="0.85"/>
    <rect x="256.66666666666663" y="180.0" width="21.333333333333332" height="0.0" fill="#21262D" rx="3" filter="url(#glow2)" opacity="0.85"/>
    <rect x="280.0" y="175.95505617977528" width="21.333333333333332" height="4.044943820224719" fill="#8B5CF6" rx="3" filter="url(#glow2)" opacity="0.85"/>
    <rect x="303.3333333333333" y="180.0" width="21.333333333333332" height="0.0" fill="#21262D" rx="3" filter="url(#glow2)" opacity="0.85"/>
    <rect x="326.66666666666663" y="173.93258426966293" width="21.333333333333332" height="6.067415730337078" fill="#8B5CF6" rx="3" filter="url(#glow2)" opacity="0.85"/>
    <rect x="350.0" y="175.95505617977528" width="21.333333333333332" height="4.044943820224719" fill="#8B5CF6" rx="3" filter="url(#glow2)" opacity="0.85"/>
    <rect x="373.3333333333333" y="88.98876404494382" width="21.333333333333332" height="91.01123595505618" fill="#F85D7F" rx="3" filter="url(#glow2)" opacity="0.85"/>
    <rect x="396.66666666666663" y="169.8876404494382" width="21.333333333333332" height="10.112359550561797" fill="#8B5CF6" rx="3" filter="url(#glow2)" opacity="0.85"/>
    <rect x="420.0" y="153.70786516853934" width="21.333333333333332" height="26.29213483146067" fill="#8B5CF6" rx="3" filter="url(#glow2)" opacity="0.85"/>
    <rect x="443.3333333333333" y="111.23595505617978" width="21.333333333333332" height="68.76404494382022" fill="#8B5CF6" rx="3" filter="url(#glow2)" opacity="0.85"/>
    <rect x="466.66666666666663" y="115.28089887640449" width="21.333333333333332" height="64.71910112359551" fill="#8B5CF6" rx="3" filter="url(#glow2)" opacity="0.85"/>
    <rect x="490.0" y="125.3932584269663" width="21.333333333333332" height="54.60674157303371" fill="#8B5CF6" rx="3" filter="url(#glow2)" opacity="0.85"/>
    <rect x="513.3333333333333" y="161.79775280898878" width="21.333333333333332" height="18.202247191011235" fill="#8B5CF6" rx="3" filter="url(#glow2)" opacity="0.85"/>
    <rect x="536.6666666666666" y="163.82022471910113" width="21.333333333333332" height="16.179775280898877" fill="#8B5CF6" rx="3" filter="url(#glow2)" opacity="0.85"/>
    <rect x="560.0" y="147.64044943820224" width="21.333333333333332" height="32.359550561797754" fill="#8B5CF6" rx="3" filter="url(#glow2)" opacity="0.85"/>
    <rect x="583.3333333333333" y="151.68539325842696" width="21.333333333333332" height="28.314606741573034" fill="#8B5CF6" rx="3" filter="url(#glow2)" opacity="0.85"/>
    <rect x="606.6666666666666" y="121.34831460674157" width="21.333333333333332" height="58.65168539325843" fill="#8B5CF6" rx="3" filter="url(#glow2)" opacity="0.85"/>
    <rect x="630.0" y="180.0" width="21.333333333333332" height="0.0" fill="#21262D" rx="3" filter="url(#glow2)" opacity="0.85"/>
    <rect x="653.3333333333333" y="151.68539325842696" width="21.333333333333332" height="28.314606741573034" fill="#8B5CF6" rx="3" filter="url(#glow2)" opacity="0.85"/>
    <rect x="676.6666666666666" y="180.0" width="21.333333333333332" height="0.0" fill="#21262D" rx="3" filter="url(#glow2)" opacity="0.85"/>
    <line x1="0" y1="0.0" x2="640" y2="0.0" stroke="#30363D" stroke-width="1" opacity="0.3"/>
    <line x1="0" y1="45.0" x2="640" y2="45.0" stroke="#30363D" stroke-width="1" opacity="0.3"/>
    <line x1="0" y1="90.0" x2="640" y2="90.0" stroke="#30363D" stroke-width="1" opacity="0.3"/>
    <line x1="0" y1="135.0" x2="640" y2="135.0" stroke="#30363D" stroke-width="1" opacity="0.3"/>
    <line x1="0" y1="180.0" x2="640" y2="180.0" stroke="#30363D" stroke-width="1" opacity="0.3"/>
  </g>
  
  <!-- Y-axis labels -->
  <text x="60" y="120" font-family="'Segoe UI', Arial, sans-serif" font-size="11" fill="#6E7681">89</text>
  <text x="60" y="210" font-family="'Segoe UI', Arial, sans-serif" font-size="11" fill="#6E7681">44</text>
  <text x="60" y="305" font-family="'Segoe UI', Arial, sans-serif" font-size="11" fill="#6E7681">0</text>
  
  <!-- Footer -->
  <text x="400" y="380" font-family="'Segoe UI', Arial, sans-serif" font-size="11" fill="#6E7681" text-anchor="middle">
    🤖 Real-time tracking • Updated: February 09, 2026 at 02:19 UTC
  </text>
</svg>