<svg width="800" height="400" xmlns="http://www.w3.org/2000/svg">
  <defs>
    <linearGradient id="barGrad" x1="0%" y1="0%" x2="0%" y2="100%">
      <stop offset="0%" style="stop-color:#3FB950;stop-opacity:1" />
      <stop offset="100%" style="stop-color:#0D1117;stop-opacity:0.8" />
    </linearGradient>
    <linearGradient id="titleGrad2" x1="0%" y1="0%" x2="100%" y2="0%">
      <stop offset="0%" style="stop-color:#3FB950;stop-opacity:1" />
      <stop offset="100%" style="stop-color:#F85D7F;stop-opacity:1" />
    </linearGradient>
    <filter id="glow2">
      <feGaussianBlur stdDeviation="2" result="coloredBlur"/>
      <feMerge>
        <feMergeNode in="coloredBlur"/>
        <feMergeNode in="SourceGraphic"/>
      </feMerge>
    </filter>
  </defs>
  
  <!-- Background -->
  <rect width="800" height="400" fill="#0D1117" rx="15"/>
  
  <!-- Title Section -->
  <text x="400" y="45" font-family="'Segoe UI', Arial, sans-serif" font-size="28" font-weight="bold" fill="url(#titleGrad2)" text-anchor="middle">
    ⚡ 30-DAY COMMIT ACTIVITY
  </text>
  <text x="400" y="70" font-family="'Segoe UI', Arial, sans-serif" font-size="13" fill="#8B949E" text-anchor="middle">
    Total: 675 commits • Peak: 63 commits/day
  </text>
  
  <!-- Chart Area -->
  <rect x="60" y="100" width="680" height="240" fill="#161B22" rx="10" opacity="0.3"/>
  
  <!-- Chart -->
  <g transform="translate(80, 120)">

    <rect x="0.0" y="174.28571428571428" width="21.333333333333332" height="5.7142857142857135" fill="#8B5CF6" rx="3" filter="url(#glow2)" opacity="0.85"/>
    <rect x="23.333333333333332" y="180.0" width="21.333333333333332" height="0.0" fill="#21262D" rx="3" filter="url(#glow2)" opacity="0.85"/>
    <rect x="46.666666666666664" y="171.42857142857142" width="21.333333333333332" height="8.571428571428571" fill="#8B5CF6" rx="3" filter="url(#glow2)" opacity="0.85"/>
    <rect x="70.0" y="174.28571428571428" width="21.333333333333332" height="5.7142857142857135" fill="#8B5CF6" rx="3" filter="url(#glow2)" opacity="0.85"/>
    <rect x="93.33333333333333" y="51.428571428571416" width="21.333333333333332" height="128.57142857142858" fill="#3FB950" rx="3" filter="url(#glow2)" opacity="0.85"/>
    <rect x="116.66666666666666" y="165.71428571428572" width="21.333333333333332" height="14.285714285714285" fill="#8B5CF6" rx="3" filter="url(#glow2)" opacity="0.85"/>
    <rect x="140.0" y="142.85714285714286" width="21.333333333333332" height="37.14285714285714" fill="#8B5CF6" rx="3" filter="url(#glow2)" opacity="0.85"/>
    <rect x="163.33333333333331" y="82.85714285714286" width="21.333333333333332" height="97.14285714285714" fill="#F85D7F" rx="3" filter="url(#glow2)" opacity="0.85"/>
    <rect x="186.66666666666666" y="88.57142857142858" width="21.333333333333332" height="91.42857142857142" fill="#F85D7F" rx="3" filter="url(#glow2)" opacity="0.85"/>
    <rect x="210.0" y="102.85714285714286" width="21.333333333333332" height="77.14285714285714" fill="#F85D7F" rx="3" filter="url(#glow2)" opacity="0.85"/>
    <rect x="233.33333333333331" y="154.28571428571428" width="21.333333333333332" height="25.71428571428571" fill="#8B5CF6" rx="3" filter="url(#glow2)" opacity="0.85"/>
    <rect x="256.66666666666663" y="157.14285714285714" width="21.333333333333332" height="22.857142857142854" fill="#8B5CF6" rx="3" filter="url(#glow2)" opacity="0.85"/>
    <rect x="280.0" y="134.28571428571428" width="21.333333333333332" height="45.71428571428571" fill="#8B5CF6" rx="3" filter="url(#glow2)" opacity="0.85"/>
    <rect x="303.3333333333333" y="140.0" width="21.333333333333332" height="40.0" fill="#8B5CF6" rx="3" filter="url(#glow2)" opacity="0.85"/>
    <rect x="326.66666666666663" y="97.14285714285715" width="21.333333333333332" height="82.85714285714285" fill="#F85D7F" rx="3" filter="url(#glow2)" opacity="0.85"/>
    <rect x="350.0" y="180.0" width="21.333333333333332" height="0.0" fill="#21262D" rx="3" filter="url(#glow2)" opacity="0.85"/>
    <rect x="373.3333333333333" y="117.14285714285714" width="21.333333333333332" height="62.857142857142854" fill="#8B5CF6" rx="3" filter="url(#glow2)" opacity="0.85"/>
    <rect x="396.66666666666663" y="145.71428571428572" width="21.333333333333332" height="34.285714285714285" fill="#8B5CF6" rx="3" filter="url(#glow2)" opacity="0.85"/>
    <rect x="420.0" y="122.85714285714286" width="21.333333333333332" height="57.14285714285714" fill="#8B5CF6" rx="3" filter="url(#glow2)" opacity="0.85"/>
    <rect x="443.3333333333333" y="94.28571428571429" width="21.333333333333332" height="85.71428571428571" fill="#F85D7F" rx="3" filter="url(#glow2)" opacity="0.85"/>
    <rect x="466.66666666666663" y="31.428571428571445" width="21.333333333333332" height="148.57142857142856" fill="#3FB950" rx="3" filter="url(#glow2)" opacity="0.85"/>
    <rect x="490.0" y="48.571428571428584" width="21.333333333333332" height="131.42857142857142" fill="#3FB950" rx="3" filter="url(#glow2)" opacity="0.85"/>
    <rect x="513.3333333333333" y="91.42857142857143" width="21.333333333333332" height="88.57142857142857" fill="#F85D7F" rx="3" filter="url(#glow2)" opacity="0.85"/>
    <rect x="536.6666666666666" y="114.28571428571429" width="21.333333333333332" height="65.71428571428571" fill="#8B5CF6" rx="3" filter="url(#glow2)" opacity="0.85"/>
    <rect x="560.0" y="105.71428571428572" width="21.333333333333332" height="74.28571428571428" fill="#F85D7F" rx="3" filter="url(#glow2)" opacity="0.85"/>
    <rect x="583.3333333333333" y="37.14285714285714" width="21.333333333333332" height="142.85714285714286" fill="#3FB950" rx="3" filter="url(#glow2)" opacity="0.85"/>
    <rect x="606.6666666666666" y="0.0" width="21.333333333333332" height="180.0" fill="#3FB950" rx="3" filter="url(#glow2)" opacity="0.85"/>
    <rect x="630.0" y="114.28571428571429" width="21.333333333333332" height="65.71428571428571" fill="#8B5CF6" rx="3" filter="url(#glow2)" opacity="0.85"/>
    <rect x="653.3333333333333" y="100.0" width="21.333333333333332" height="80.0" fill="#F85D7F" rx="3" filter="url(#glow2)" opacity="0.85"/>
    <rect x="676.6666666666666" y="151.42857142857144" width="21.333333333333332" height="28.57142857142857" fill="#8B5CF6" rx="3" filter="url(#glow2)" opacity="0.85"/>
    <line x1="0" y1="0.0" x2="640" y2="0.0" stroke="#30363D" stroke-width="1" opacity="0.3"/>
    <line x1="0" y1="45.0" x2="640" y2="45.0" stroke="#30363D" stroke-width="1" opacity="0.3"/>
    <line x1="0" y1="90.0" x2="640" y2="90.0" stroke="#30363D" stroke-width="1" opacity="0.3"/>
    <line x1="0" y1="135.0" x2="640" y2="135.0" stroke="#30363D" stroke-width="1" opacity="0.3"/>
    <line x1="0" y1="180.0" x2="640" y2="180.0" stroke="#30363D" stroke-width="1" opacity="0.3"/>
  </g>
  
  <!-- Y-axis labels -->
  <text x="60" y="120" font-family="'Segoe UI', Arial, sans-serif" font-size="11" fill="#6E7681">63</text>
  <text x="60" y="210" font-family="'Segoe UI', Arial, sans-serif" font-size="11" fill="#6E7681">31</text>
  <text x="60" y="305" font-family="'Segoe UI', Arial, sans-serif" font-size="11" fill="#6E7681">0</text>
  
  <!-- Footer -->
  <text x="400" y="380" font-family="'Segoe UI', Arial, sans-serif" font-size="11" fill="#6E7681" text-anchor="middle">
    🤖 Real-time tracking • Updated: February 21, 2026 at 12:19 UTC
  </text>
</svg>